<svg width="42" height="40" viewBox="0 0 42 40" fill="none" xmlns="http://www.w3.org/2000/svg">
<path fill-rule="evenodd" clip-rule="evenodd" d="M20.9901 35.9628C20.8178 35.9968 20.6392 36.008 20.4582 35.9943C14.8651 35.5696 9.57124 32.4782 6.55501 27.2506C3.53874 22.0228 3.51025 15.8894 5.93937 10.8301C6.29203 10.0956 7.05653 9.65396 7.86854 9.71562C9.95281 9.87386 11.9955 10.4024 13.8943 11.2739C15.3271 8.4784 17.4469 6.09361 20.0306 4.3427C20.7049 3.88577 21.5868 3.88577 22.2611 4.3427C24.8098 6.06984 26.907 8.41375 28.3386 11.1603C30.1654 10.3564 32.1195 9.86686 34.1116 9.71562C34.9236 9.65396 35.6881 10.0956 36.0408 10.8301C38.4699 15.8894 38.4414 22.0228 35.4251 27.2506C32.4089 32.4782 27.115 35.5696 21.5219 35.9943C21.3409 36.008 21.1623 35.9968 20.9901 35.9628ZM25.0879 32.7938C28.4405 31.6528 31.4058 29.3374 33.3137 26.0307C35.8532 21.6292 35.9359 16.4823 33.9783 12.1758C32.3707 12.3318 30.7973 12.7433 29.3211 13.3928C30.0413 15.3748 30.4341 17.5141 30.4341 19.7451C30.4341 24.8298 28.3939 29.4377 25.0879 32.7938ZM26.1801 12.2947C24.984 9.99699 23.2513 8.0225 21.1459 6.53694C18.9954 8.05431 17.2336 10.0818 16.0355 12.4428C17.9424 13.6631 19.6365 15.2683 20.9901 17.2242C22.3991 15.1881 24.1771 13.5321 26.1801 12.2947ZM22.3714 19.5905C23.5965 17.4994 25.2465 15.8097 27.1494 14.5685C27.6985 16.1937 27.996 17.9347 27.996 19.7451C27.996 23.9247 26.4104 27.7342 23.8036 30.6037C24.5089 26.9789 24.0823 23.1183 22.3714 19.5905ZM19.6087 19.5905C18.4387 17.5934 16.8811 15.9625 15.0859 14.7386C14.5729 16.315 14.2957 17.9977 14.2957 19.7451C14.2957 23.7104 15.7229 27.3425 18.0952 30.1549C17.5085 26.6616 17.9683 22.9731 19.6087 19.5905ZM20.9901 31.7961C21.9053 28.8836 21.9429 25.7064 20.9901 22.6944C20.0372 25.7064 20.0748 28.8836 20.9901 31.7961ZM8.66646 26.0307C10.661 29.4877 13.8113 31.8612 17.3514 32.942C13.9587 29.574 11.8576 24.9051 11.8576 19.7451C11.8576 17.5594 12.2346 15.4618 12.9271 13.5139C11.3739 12.7942 9.70713 12.3413 8.00187 12.1758C6.04422 16.4823 6.12691 21.6292 8.66646 26.0307Z" fill="#FDB813"/>
</svg>
